<svg id="Black_Logo" data-name="Black Logo" xmlns="http://www.w3.org/2000/svg" width="35" height="33" viewBox="0 0 35 33">
  <defs>
    <style>
      .cls-1 {
        fill: #33385b;
      }

      .cls-2 {
        fill: #d0d0d0;
      }
    </style>
  </defs>
  <path id="Arrow" class="cls-1" d="M30.393,32.587c0.441-.412-0.008-0.513-0.008-0.513s-2.654,1.354-1.982.795,0-.795,0-0.795H18.609a0.256,0.256,0,0,1-.255-0.256V29.357a0.256,0.256,0,0,1,.255-0.256h9.8a0.4,0.4,0,0,0,0-.641c-0.462-.38,1.953.641,1.953,0.641s0.456-.1.036-0.487,3.852,1.535,3.852,1.923S29.952,33,30.393,32.587Z"/>
  <path id="Slogan" class="cls-2" d="M1.171,31.614H1.5V29.832H1.835v-0.3h-1v0.3H1.171v1.782Zm0.82,0H2.316V30.679H2.664v0.935H2.989V29.535H2.664v0.846H2.316V29.535H1.991v2.079Zm1.239,0H4.116v-0.3H3.555V30.679H4v-0.3H3.555V29.832H4.116v-0.3H3.231v2.079Zm2.013,0.03a0.475,0.475,0,0,0,.366-0.137,0.546,0.546,0,0,0,.127-0.386V30.028a0.546,0.546,0,0,0-.127-0.386,0.475,0.475,0,0,0-.366-0.137,0.475,0.475,0,0,0-.366.137,0.546,0.546,0,0,0-.127.386v1.093a0.546,0.546,0,0,0,.127.386,0.475,0.475,0,0,0,.366.137h0Zm0-.3a0.167,0.167,0,0,1-.168-0.2V30.007a0.171,0.171,0,1,1,.336,0v1.134a0.167,0.167,0,0,1-.168.2h0Zm0.711,0.267H6.244V30.1H6.25l0.39,1.517H6.973V29.535H6.683V30.78H6.678L6.362,29.535H5.955v2.079Zm1.26,0H8.073v-0.3H7.539V29.535H7.215v2.079Zm1.054,0H8.593V30.729l0.393-1.194H8.67L8.448,30.3H8.442l-0.221-.763H7.876l0.393,1.194v0.885Zm1.47,0h0.431l0.148-1.4h0.006l0.148,1.4h0.4l0.21-2.079H10.8l-0.145,1.6H10.653l-0.153-1.6H10.145l-0.153,1.6H9.986l-0.145-1.6H9.528Zm1.384,0h0.3l0.059-.407h0.369V31.2l0.059,0.413h0.325L11.9,29.535h-0.44Zm0.4-.689L11.662,29.9h0.006l0.145,1.027H11.52Zm1.033,0.689h0.325V30.729l0.393-1.194H12.955l-0.221.763H12.727l-0.221-.763H12.161l0.393,1.194v0.885Zm1.337,0h0.325V29.535H13.89v2.079Zm0.989,0.03a0.47,0.47,0,0,0,.364-0.137,0.559,0.559,0,0,0,.125-0.392,0.722,0.722,0,0,0-.077-0.341,1.223,1.223,0,0,0-.28-0.324,1.156,1.156,0,0,1-.22-0.238A0.393,0.393,0,0,1,14.731,30a0.162,0.162,0,0,1,.162-0.2,0.149,0.149,0,0,1,.121.049,0.24,0.24,0,0,1,.041.156v0.107h0.307V30.028a0.567,0.567,0,0,0-.12-0.387,0.446,0.446,0,0,0-.353-0.135,0.464,0.464,0,0,0-.36.135,0.544,0.544,0,0,0-.124.382,0.66,0.66,0,0,0,.08.325,1.314,1.314,0,0,0,.28.322,1.1,1.1,0,0,1,.218.239,0.443,0.443,0,0,1,.059.23A0.24,0.24,0,0,1,15,31.3a0.158,0.158,0,0,1-.125.049,0.165,0.165,0,0,1-.168-0.2V31H14.4v0.119a0.562,0.562,0,0,0,.121.388,0.454,0.454,0,0,0,.357.135h0Zm1.4-.03h0.325V29.832h0.339v-0.3h-1v0.3h0.339v1.782Zm1.278,0.03a0.475,0.475,0,0,0,.366-0.137,0.546,0.546,0,0,0,.127-0.386V30.028a0.546,0.546,0,0,0-.127-0.386,0.558,0.558,0,0,0-.732,0,0.546,0.546,0,0,0-.127.386v1.093a0.546,0.546,0,0,0,.127.386,0.475,0.475,0,0,0,.366.137h0Zm0-.3a0.167,0.167,0,0,1-.168-0.2V30.007a0.171,0.171,0,1,1,.336,0v1.134a0.167,0.167,0,0,1-.168.2h0Zm1.183,0.267h0.283V30.04h0.006l0.236,1.574h0.271l0.236-1.574h0.006v1.574h0.307V29.535H19.624l-0.207,1.488H19.412l-0.207-1.488H18.742v2.079Zm2.057,0.03a0.475,0.475,0,0,0,.366-0.137,0.546,0.546,0,0,0,.127-0.386V30.028a0.546,0.546,0,0,0-.127-0.386,0.558,0.558,0,0,0-.732,0,0.546,0.546,0,0,0-.127.386v1.093a0.546,0.546,0,0,0,.127.386,0.475,0.475,0,0,0,.366.137h0Zm0-.3a0.167,0.167,0,0,1-.168-0.2V30.007a0.171,0.171,0,1,1,.336,0v1.134a0.167,0.167,0,0,1-.168.2h0Zm0.933,0.267h0.431l0.313-2.079h-0.3l-0.212,1.612H21.959l-0.213-1.612H21.419Zm0.9,0h0.885v-0.3H22.956V30.679H23.4v-0.3H22.956V29.832h0.561v-0.3H22.631v2.079Zm1.543,0H24.5V30.708h0.419v-0.3H24.5V29.832h0.534v-0.3H24.175v2.079Zm1.484,0.03a0.475,0.475,0,0,0,.366-0.137,0.546,0.546,0,0,0,.127-0.386V30.028a0.546,0.546,0,0,0-.127-0.386,0.558,0.558,0,0,0-.732,0,0.546,0.546,0,0,0-.127.386v1.093a0.546,0.546,0,0,0,.127.386,0.475,0.475,0,0,0,.366.137h0Zm0-.3a0.167,0.167,0,0,1-.168-0.2V30.007a0.171,0.171,0,1,1,.336,0v1.134a0.167,0.167,0,0,1-.168.2h0ZM26.5,31.614h0.431l0.148-1.4h0.006l0.148,1.4h0.4l0.21-2.079h-0.28l-0.145,1.6H27.418l-0.153-1.6H26.911l-0.153,1.6H26.751l-0.145-1.6H26.294Zm1.384,0h0.3l0.059-.407h0.369V31.2l0.059,0.413H29l-0.336-2.079h-0.44Zm0.4-.689L28.427,29.9h0.006l0.145,1.027H28.286Zm0.871,0.689h0.325V30.723h0.112a0.193,0.193,0,0,1,.158.056,0.324,0.324,0,0,1,.046.2v0.38a1.448,1.448,0,0,0,.006.16,0.475,0.475,0,0,0,.024.1h0.331a0.36,0.36,0,0,1-.029-0.108,1.386,1.386,0,0,1-.006-0.144V31a0.738,0.738,0,0,0-.049-0.294,0.254,0.254,0,0,0-.167-0.146V30.551a0.39,0.39,0,0,0,.213-0.41V30.013a0.416,0.416,0,0,0-.481-0.478H29.156v2.079Zm0.325-1.188V29.832h0.148a0.15,0.15,0,0,1,.125.05,0.265,0.265,0,0,1,.04.163v0.16a0.24,0.24,0,0,1-.049.169,0.194,0.194,0,0,1-.146.051H29.481Zm0.865,1.188h0.5a0.471,0.471,0,0,0,.363-0.131,0.544,0.544,0,0,0,.121-0.383V30.049a0.545,0.545,0,0,0-.121-0.383,0.471,0.471,0,0,0-.363-0.131h-0.5v2.079Zm0.325-.3V29.832h0.165a0.156,0.156,0,0,1,.122.048,0.228,0.228,0,0,1,.043.154v1.081a0.228,0.228,0,0,1-.043.154,0.156,0.156,0,0,1-.122.048H30.67Z"/>
  <path id="Forma_1" data-name="Forma 1" class="cls-2" d="M18.418,1.451s0.184,26.8.018,26.817c-1.474.126-2.306,0.127-1.836,0.127H12.909V7l-7.364,21.4H1.674a1.36,1.36,0,0,1-1-.32A0.972,0.972,0,0,1,.5,27L8.826,2.8c0.254-.737-0.552-2.583-0.2-2.569S9.726,1.65,10.46,1.65H16.6S18.536-.012,19.094,0c0.256,0-.57,1.172-0.658,1.654"/>
  <path id="Forma_2" data-name="Forma 2" class="cls-2" d="M19.354,7.053c0.012,0,10.118-.032,10.118,7.96s-10.118,7.815-10.118,7.815v5.349c2.684-.281,6.655-0.922,9.282-2.385,0.188-.1,1.487.911,1.883,0.654s-0.128-1.773,0-1.872A11.4,11.4,0,0,0,35,15.016C35,4.291,24.491,2.14,19.355,1.729V7.053Zm0-.015M19.3,22.828"/>
  <path id="AXIE_DEFINITY" data-name="AXIE DEFINITY" class="cls-1" d="M6.441,25.65l0.09-.259-1.911.165L6,26.918l0.09-.259-0.317-.3,0.232-.672Zm-0.857.527-0.445-.428,0.61-.048Zm0.958-.819,0.093-.269-0.473-.568,0.716-.135,0.093-.269-0.979.188L5.4,23.591l-0.093.269,0.421,0.5-0.635.121L5,24.749l0.9-.172Zm-1.06-2,1.562,0.547,0.083-.24-1.562-.547ZM6,21.873l-0.3.867,1.562,0.547,0.3-.867-0.225-.079-0.217.627L6.625,22.8l0.21-.608L6.61,22.109l-0.21.608L6,22.579l0.217-.627Zm0.3-.86L7.856,21.56l0.113-.325a0.961,0.961,0,0,0,.049-0.628A0.791,0.791,0,0,0,7.5,20.071a0.814,0.814,0,0,0-.734.081,0.97,0.97,0,0,0-.354.531ZM6.6,20.851l0.036-.1a0.746,0.746,0,0,1,.253-0.382,0.61,0.61,0,0,1,.894.316,0.725,0.725,0,0,1-.034.456l-0.036.1Zm0.517-2.224-0.3.867,1.562,0.548,0.3-.867L8.456,19.1l-0.217.627-0.492-.172,0.21-.608-0.225-.079-0.21.608-0.4-.139,0.217-.627Zm0.38-1.1-0.272.787,1.562,0.548,0.083-.24-0.717-.251,0.183-.528-0.225-.079-0.183.528-0.4-.139,0.189-.547Zm0.095-.273L9.155,17.8l0.083-.24-1.562-.547Zm1.859-.31-1.091-.383,1.582-.725-1.658-.581L8.2,15.5l1.082,0.379L7.7,16.6l1.667,0.584ZM8.415,14.88l1.562,0.547,0.083-.24L8.5,14.639Zm0.714-1.335L8.9,13.465l-0.333.962L8.8,14.506l0.125-.361,1.337,0.469,0.083-.24L9,13.9Zm1.541-.12,0.083-.24-0.674-.236L9.37,12.119l-0.095.273,0.5,0.582-0.751.144-0.095.273L10,13.187Z"/>
</svg>
